PathFileType	4	(X/Y/Z)	C:\Users\italobelli\Desktop\GitHub\PTbot_officialCBL\Personal_Results\SHRUG03_noisy2.trc
DataRate	CameraRate	NumFrames	NumMarkers	Units	OrigDataRate	OrigDataStartFrame	OrigNumFrames
110.888889	110.888889	29	9	m	110.888889	438	500
Frame#	Time		gu		centelbow		EpL		centpxt8		centijc7		ts		aa		ai		ij
			X1	Y1	Z1	X2	Y2	Z2	X3	Y3	Z3	X4	Y4	Z4	X5	Y5	Z5	X6	Y6	Z6	X7	Y7	Z7	X8	Y8	Z8	X9	Y9	Z9

438	3.9409	-0.083486	-0.012618	0.16528	-0.1108	-0.26312	0.18385	-0.091601	-0.25849	0.20933	-0.046816	-0.15316	-0.008669	-0.046816	0.031938	-0.008669	-0.13835	0.031214	0.053902	-0.11033	0.025265	0.16968	-0.15988	-0.080135	0.058766	0	0	0
439	3.9499	-0.083486	-0.012617	0.16528	-0.1107	-0.26303	0.18383	-0.091497	-0.25839	0.20931	-0.046816	-0.15316	-0.008669	-0.046816	0.031938	-0.008669	-0.13835	0.031202	0.053905	-0.11032	0.02525	0.16968	-0.15988	-0.080147	0.058767	0	0	0
440	3.9589	-0.083485	-0.012617	0.16527	-0.1106	-0.26293	0.18381	-0.0914	-0.2583	0.20929	-0.046816	-0.15316	-0.008669	-0.046816	0.031938	-0.008669	-0.13835	0.031189	0.053909	-0.11032	0.025236	0.16968	-0.15988	-0.08016	0.058769	0	0	0
441	3.9679	-0.083485	-0.012617	0.16527	-0.11051	-0.26284	0.1838	-0.091308	-0.25819	0.20927	-0.046816	-0.15316	-0.008669	-0.046816	0.031938	-0.008669	-0.13835	0.031176	0.053912	-0.11032	0.025221	0.16969	-0.15988	-0.080173	0.05877	0	0	0
442	3.977	-0.083484	-0.012617	0.16526	-0.11043	-0.26274	0.18379	-0.091222	-0.25809	0.20926	-0.046816	-0.15316	-0.008669	-0.046816	0.031938	-0.008669	-0.13835	0.031163	0.053916	-0.11032	0.025207	0.16969	-0.15988	-0.080186	0.058772	0	0	0
443	3.986	-0.083483	-0.012617	0.16526	-0.11035	-0.26264	0.18378	-0.091142	-0.25799	0.20926	-0.046816	-0.15316	-0.008669	-0.046816	0.031938	-0.008669	-0.13835	0.031151	0.053919	-0.11032	0.025192	0.16969	-0.15988	-0.080198	0.058773	0	0	0
444	3.995	-0.083482	-0.012618	0.16525	-0.11028	-0.26255	0.18378	-0.09107	-0.25789	0.20925	-0.046816	-0.15316	-0.008669	-0.046816	0.031938	-0.008669	-0.13835	0.031138	0.053923	-0.11032	0.025178	0.1697	-0.15988	-0.080211	0.058775	0	0	0
445	4.004	-0.08348	-0.01262	0.16525	-0.11021	-0.26244	0.18378	-0.091004	-0.25778	0.20925	-0.046816	-0.15316	-0.008669	-0.046816	0.031938	-0.008669	-0.13835	0.031125	0.053927	-0.11032	0.025164	0.1697	-0.15988	-0.080224	0.058777	0	0	0
446	4.013	-0.083478	-0.012622	0.16524	-0.11016	-0.26233	0.1838	-0.090951	-0.25767	0.20926	-0.046816	-0.15316	-0.008669	-0.046816	0.031938	-0.008669	-0.13835	0.031113	0.05393	-0.11032	0.025149	0.16971	-0.15988	-0.080236	0.058778	0	0	0
447	4.022	-0.083476	-0.012624	0.16524	-0.11012	-0.26221	0.18383	-0.09091	-0.25754	0.20929	-0.046816	-0.15316	-0.008669	-0.046816	0.031938	-0.008669	-0.13835	0.0311	0.053934	-0.11032	0.025135	0.16971	-0.15988	-0.080249	0.05878	0	0	0
448	4.0311	-0.083473	-0.012628	0.16523	-0.11009	-0.26207	0.18387	-0.090882	-0.2574	0.20933	-0.046816	-0.15316	-0.008669	-0.046816	0.031938	-0.008669	-0.13835	0.031087	0.053938	-0.11032	0.02512	0.16971	-0.15988	-0.080262	0.058782	0	0	0
449	4.0401	-0.083469	-0.012632	0.16523	-0.11008	-0.26192	0.18393	-0.090865	-0.25724	0.20939	-0.046816	-0.15316	-0.008669	-0.046816	0.031938	-0.008669	-0.13835	0.031074	0.053941	-0.11032	0.025105	0.16972	-0.15988	-0.080275	0.058784	0	0	0
450	4.0491	-0.083465	-0.012637	0.16523	-0.11007	-0.26176	0.184	-0.090861	-0.25708	0.20946	-0.046816	-0.15316	-0.008669	-0.046816	0.031938	-0.008669	-0.13835	0.031061	0.053945	-0.11032	0.02509	0.16972	-0.15988	-0.080288	0.058785	0	0	0
451	4.0581	-0.08346	-0.012643	0.16522	-0.11008	-0.26158	0.18408	-0.090868	-0.2569	0.20954	-0.046816	-0.15316	-0.008669	-0.046816	0.031938	-0.008669	-0.13835	0.031048	0.053949	-0.11031	0.025075	0.16972	-0.15988	-0.080301	0.058787	0	0	0
452	4.0671	-0.083455	-0.012649	0.16522	-0.1101	-0.2614	0.18418	-0.090887	-0.25671	0.20964	-0.046816	-0.15316	-0.008669	-0.046816	0.031938	-0.008669	-0.13834	0.031034	0.053953	-0.11031	0.02506	0.16973	-0.15987	-0.080314	0.058789	0	0	0
453	4.0762	-0.083449	-0.012657	0.16521	-0.11013	-0.2612	0.18428	-0.090916	-0.25651	0.20975	-0.046816	-0.15316	-0.008669	-0.046816	0.031938	-0.008669	-0.13834	0.031021	0.053956	-0.11031	0.025044	0.16973	-0.15987	-0.080328	0.058791	0	0	0
454	4.0852	-0.083443	-0.012664	0.16521	-0.11017	-0.261	0.18441	-0.090956	-0.2563	0.20987	-0.046816	-0.15316	-0.008669	-0.046816	0.031938	-0.008669	-0.13834	0.031007	0.05396	-0.11031	0.025029	0.16974	-0.15987	-0.080341	0.058793	0	0	0
455	4.0942	-0.083436	-0.012673	0.1652	-0.11022	-0.26078	0.18454	-0.091007	-0.25608	0.21	-0.046816	-0.15316	-0.008669	-0.046816	0.031938	-0.008669	-0.13834	0.030993	0.053964	-0.11031	0.025013	0.16974	-0.15987	-0.080355	0.058794	0	0	0
456	4.1032	-0.083429	-0.012682	0.1652	-0.11028	-0.26055	0.18468	-0.091068	-0.25585	0.21015	-0.046816	-0.15316	-0.008669	-0.046816	0.031938	-0.008669	-0.13834	0.03098	0.053968	-0.11031	0.024997	0.16974	-0.15987	-0.080368	0.058796	0	0	0
457	4.1122	-0.083421	-0.012691	0.16519	-0.11035	-0.26031	0.18484	-0.091138	-0.25561	0.2103	-0.046816	-0.15316	-0.008669	-0.046816	0.031938	-0.008669	-0.13834	0.030966	0.053971	-0.11031	0.024982	0.16975	-0.15987	-0.080382	0.058798	0	0	0
458	4.1212	-0.083413	-0.012701	0.16519	-0.11043	-0.26006	0.18501	-0.091219	-0.25536	0.21047	-0.046816	-0.15316	-0.008669	-0.046816	0.031938	-0.008669	-0.13833	0.030952	0.053975	-0.11031	0.024965	0.16975	-0.15987	-0.080396	0.0588	0	0	0
459	4.1303	-0.083405	-0.012712	0.16518	-0.11052	-0.2598	0.18518	-0.091308	-0.2551	0.21065	-0.046816	-0.15316	-0.008669	-0.046816	0.031938	-0.008669	-0.13833	0.030937	0.053979	-0.11031	0.024949	0.16976	-0.15987	-0.08041	0.058802	0	0	0
460	4.1393	-0.083396	-0.012724	0.16518	-0.11062	-0.25953	0.18537	-0.091406	-0.25483	0.21083	-0.046816	-0.15316	-0.008669	-0.046816	0.031938	-0.008669	-0.13833	0.030923	0.053983	-0.11031	0.024933	0.16976	-0.15987	-0.080424	0.058804	0	0	0
461	4.1483	-0.083387	-0.012736	0.16518	-0.11073	-0.25925	0.18557	-0.091514	-0.25455	0.21103	-0.046816	-0.15316	-0.008669	-0.046816	0.031938	-0.008669	-0.13833	0.030909	0.053986	-0.1103	0.024917	0.16976	-0.15987	-0.080438	0.058806	0	0	0
462	4.1573	-0.083377	-0.012748	0.16517	-0.11084	-0.25897	0.18578	-0.091629	-0.25427	0.21124	-0.046816	-0.15316	-0.008669	-0.046816	0.031938	-0.008669	-0.13832	0.030894	0.05399	-0.1103	0.0249	0.16977	-0.15987	-0.080452	0.058808	0	0	0
463	4.1663	-0.083367	-0.012761	0.16517	-0.11096	-0.25867	0.186	-0.091753	-0.25397	0.21146	-0.046816	-0.15316	-0.008669	-0.046816	0.031938	-0.008669	-0.13832	0.03088	0.053994	-0.1103	0.024883	0.16977	-0.15987	-0.080467	0.058809	0	0	0
464	4.1754	-0.083357	-0.012774	0.16516	-0.1111	-0.25837	0.18622	-0.091885	-0.25367	0.21169	-0.046816	-0.15316	-0.008669	-0.046816	0.031938	-0.008669	-0.13832	0.030865	0.053998	-0.1103	0.024866	0.16978	-0.15987	-0.080481	0.058811	0	0	0
465	4.1844	-0.083346	-0.012788	0.16516	-0.11123	-0.25806	0.18646	-0.092024	-0.25336	0.21192	-0.046816	-0.15316	-0.008669	-0.046816	0.031938	-0.008669	-0.13832	0.03085	0.054001	-0.1103	0.024849	0.16978	-0.15987	-0.080496	0.058813	0	0	0
466	4.1934	-0.083335	-0.012803	0.16515	-0.11138	-0.25774	0.1867	-0.092171	-0.25304	0.21217	-0.046816	-0.15316	-0.008669	-0.046816	0.031938	-0.008669	-0.13831	0.030835	0.054005	-0.1103	0.024832	0.16978	-0.15987	-0.08051	0.058815	0	0	0
